<svg xmlns="http://www.w3.org/2000/svg" width="48.309" height="51.25" viewBox="61.846 711.461 48.309 51.25"><g data-name="Group 297"><path d="M85.846 711.461h.308a24 24 0 0 1 24 24v3.25a24 24 0 0 1-24 24h-.308a24 24 0 0 1-24-24v-3.25a24 24 0 0 1 24-24z" fill="#fff" fill-rule="evenodd" data-name="Rectangle 2"/><g data-name="Path 11"><path d="M80.169 737.089v.003c0 .402.162.765.422 1.024v.001l8.281 8.542.004-.004c.248.245.584.396.955.396.762 0 1.38-.637 1.38-1.424 0-.431-.187-.818-.481-1.08l-7.232-7.458 7.327-7.556c.238-.257.386-.605.386-.989 0-.786-.618-1.423-1.38-1.423-.372 0-.71.151-.958.399l-8.282 8.54v.001a1.44 1.44 0 0 0-.422 1.025v.003Z" fill="#f59fd0" fill-rule="evenodd"/><path d="M80.169 737.089v.003c0 .402.162.765.422 1.024v.001l8.281 8.542.004-.004c.248.245.584.396.955.396.762 0 1.38-.637 1.38-1.424 0-.431-.187-.818-.481-1.08l-7.232-7.458 7.327-7.556h0c.238-.257.386-.605.386-.989 0-.786-.618-1.423-1.38-1.423-.372 0-.71.151-.958.399h0l-8.282 8.54v.001a1.44 1.44 0 0 0-.422 1.025v.003Z" stroke-linejoin="round" stroke-linecap="round" stroke="#f59fd0" fill="transparent"/></g></g></svg>